REM DIRINDEX 1\2,1\3,1\4
REM DIRNAME folder01,folder02,folder03,folder04
TITLE ""
FILE "104 104_TOEFL_3900.mp3" MP3
  TRACK 01 AUDIO
    TITLE "2:cjc151_4532"
    INDEX 01 00:00:00
  TRACK 02 AUDIO
    TITLE "0:"
    INDEX 01 00:01:28
  TRACK 03 AUDIO
    TITLE "3:cjc151_4533"
    INDEX 01 00:03:10
  TRACK 04 AUDIO
    TITLE "0:"
    INDEX 01 00:06:51
  TRACK 05 AUDIO
    TITLE "2:cjc151_4534"
    INDEX 01 00:08:30
  TRACK 06 AUDIO
    TITLE "0:"
    INDEX 01 00:09:40
  TRACK 07 AUDIO
    TITLE "3:cjc151_4535"
    INDEX 01 00:11:19
  TRACK 08 AUDIO
    TITLE "0:"
    INDEX 01 00:14:54
  TRACK 09 AUDIO
    TITLE "2:cjc151_4536"
    INDEX 01 00:16:30
  TRACK 10 AUDIO
    TITLE "0:"
    INDEX 01 00:17:37
  TRACK 11 AUDIO
    TITLE "3:cjc151_4537"
    INDEX 01 00:19:16
  TRACK 12 AUDIO
    TITLE "0:"
    INDEX 01 00:23:04
  TRACK 13 AUDIO
    TITLE "2:cjc151_4538"
    INDEX 01 00:24:59
  TRACK 14 AUDIO
    TITLE "0:"
    INDEX 01 00:25:62
  TRACK 15 AUDIO
    TITLE "3:cjc151_4539"
    INDEX 01 00:27:41
  TRACK 16 AUDIO
    TITLE "0:"
    INDEX 01 00:30:24
  TRACK 17 AUDIO
    TITLE "2:cjc151_4540"
    INDEX 01 00:32:05
  TRACK 18 AUDIO
    TITLE "0:"
    INDEX 01 00:33:03
  TRACK 19 AUDIO
    TITLE "3:cjc151_4541"
    INDEX 01 00:34:69
  TRACK 20 AUDIO
    TITLE "0:"
    INDEX 01 00:37:57
  TRACK 21 AUDIO
    TITLE "2:cjc151_4542"
    INDEX 01 00:39:39
  TRACK 22 AUDIO
    TITLE "0:"
    INDEX 01 00:40:52
  TRACK 23 AUDIO
    TITLE "3:cjc151_4543"
    INDEX 01 00:42:39
  TRACK 24 AUDIO
    TITLE "0:"
    INDEX 01 00:46:33
  TRACK 25 AUDIO
    TITLE "2:cjc151_4544"
    INDEX 01 00:48:14
  TRACK 26 AUDIO
    TITLE "0:"
    INDEX 01 00:49:51
  TRACK 27 AUDIO
    TITLE "3:cjc151_4545"
    INDEX 01 00:51:30
  TRACK 28 AUDIO
    TITLE "0:"
    INDEX 01 00:54:58
  TRACK 29 AUDIO
    TITLE "2:cjc151_4546"
    INDEX 01 00:56:35
  TRACK 30 AUDIO
    TITLE "0:"
    INDEX 01 00:57:33
  TRACK 31 AUDIO
    TITLE "3:cjc151_4547"
    INDEX 01 00:59:14
  TRACK 32 AUDIO
    TITLE "0:"
    INDEX 01 01:02:32
  TRACK 33 AUDIO
    TITLE "2:cjc151_4548"
    INDEX 01 01:04:13
  TRACK 34 AUDIO
    TITLE "0:"
    INDEX 01 01:05:11
  TRACK 35 AUDIO
    TITLE "3:cjc151_4549"
    INDEX 01 01:06:63
  TRACK 36 AUDIO
    TITLE "0:"
    INDEX 01 01:09:36
  TRACK 37 AUDIO
    TITLE "2:cjc151_4550"
    INDEX 01 01:11:19
  TRACK 38 AUDIO
    TITLE "0:"
    INDEX 01 01:12:23
  TRACK 39 AUDIO
    TITLE "3:cjc151_4551"
    INDEX 01 01:14:02
  TRACK 40 AUDIO
    TITLE "0:"
    INDEX 01 01:17:33
  TRACK 41 AUDIO
    TITLE "2:cjc151_4552"
    INDEX 01 01:19:13
  TRACK 42 AUDIO
    TITLE "0:"
    INDEX 01 01:20:42
  TRACK 43 AUDIO
    TITLE "3:cjc151_4553"
    INDEX 01 01:22:21
  TRACK 44 AUDIO
    TITLE "0:"
    INDEX 01 01:25:68
  TRACK 45 AUDIO
    TITLE "2:cjc151_4554"
    INDEX 01 01:27:50
  TRACK 46 AUDIO
    TITLE "0:"
    INDEX 01 01:29:23
  TRACK 47 AUDIO
    TITLE "3:cjc151_4555"
    INDEX 01 01:31:00
  TRACK 48 AUDIO
    TITLE "0:"
    INDEX 01 01:34:18
  TRACK 49 AUDIO
    TITLE "2:cjc151_4556"
    INDEX 01 01:36:05
  TRACK 50 AUDIO
    TITLE "0:"
    INDEX 01 01:37:13
  TRACK 51 AUDIO
    TITLE "3:cjc151_4557"
    INDEX 01 01:38:65
  TRACK 52 AUDIO
    TITLE "0:"
    INDEX 01 01:42:39
  TRACK 53 AUDIO
    TITLE "2:cjc151_4558"
    INDEX 01 01:44:19
  TRACK 54 AUDIO
    TITLE "0:"
    INDEX 01 01:45:20
  TRACK 55 AUDIO
    TITLE "3:cjc151_4559"
    INDEX 01 01:46:66
  TRACK 56 AUDIO
    TITLE "0:"
    INDEX 01 01:50:70
  TRACK 57 AUDIO
    TITLE "2:cjc151_4560"
    INDEX 01 01:52:51
  TRACK 58 AUDIO
    TITLE "0:"
    INDEX 01 01:53:74
  TRACK 59 AUDIO
    TITLE "3:cjc151_4561"
    INDEX 01 01:55:54
  TRACK 60 AUDIO
    TITLE "0:"
    INDEX 01 01:58:64
  TRACK 61 AUDIO
    TITLE "2:cjc151_4562"
    INDEX 01 02:00:43
  TRACK 62 AUDIO
    TITLE "0:"
    INDEX 01 02:01:43
  TRACK 63 AUDIO
    TITLE "3:cjc151_4563"
    INDEX 01 02:03:22
  TRACK 64 AUDIO
    TITLE "0:"
    INDEX 01 02:07:08
  TRACK 65 AUDIO
    TITLE "2:cjc151_4564"
    INDEX 01 02:08:64
  TRACK 66 AUDIO
    TITLE "0:"
    INDEX 01 02:10:22
  TRACK 67 AUDIO
    TITLE "3:cjc151_4565"
    INDEX 01 02:12:01
  TRACK 68 AUDIO
    TITLE "0:"
    INDEX 01 02:15:49
  TRACK 69 AUDIO
    TITLE "2:cjc151_4566"
    INDEX 01 02:17:26
  TRACK 70 AUDIO
    TITLE "0:"
    INDEX 01 02:18:21
  TRACK 71 AUDIO
    TITLE "3:cjc151_4567"
    INDEX 01 02:20:01
  TRACK 72 AUDIO
    TITLE "0:"
    INDEX 01 02:23:01
  TRACK 73 AUDIO
    TITLE "2:cjc151_4568"
    INDEX 01 02:24:55
  TRACK 74 AUDIO
    TITLE "0:"
    INDEX 01 02:25:68
  TRACK 75 AUDIO
    TITLE "3:cjc151_4569"
    INDEX 01 02:27:48
  TRACK 76 AUDIO
    TITLE "0:"
    INDEX 01 02:32:24
  TRACK 77 AUDIO
    TITLE "2:cjc151_4570"
    INDEX 01 02:34:01
  TRACK 78 AUDIO
    TITLE "0:"
    INDEX 01 02:35:12
  TRACK 79 AUDIO
    TITLE "3:cjc151_4571"
    INDEX 01 02:36:66
  TRACK 80 AUDIO
    TITLE "0:"
    INDEX 01 02:41:13
  TRACK 81 AUDIO
    TITLE "2:cjc151_4572"
    INDEX 01 02:42:71
  TRACK 82 AUDIO
    TITLE "0:"
    INDEX 01 02:44:03
  TRACK 83 AUDIO
    TITLE "3:cjc151_4573"
    INDEX 01 02:45:57
  TRACK 84 AUDIO
    TITLE "0:"
    INDEX 01 02:48:56
  TRACK 85 AUDIO
    TITLE "2:cjc151_4574"
    INDEX 01 02:50:35
  TRACK 86 AUDIO
    TITLE "0:"
    INDEX 01 02:51:29
  TRACK 87 AUDIO
    TITLE "3:cjc151_4575"
    INDEX 01 02:53:08
  TRACK 88 AUDIO
    TITLE "0:"
    INDEX 01 02:55:58
